/vscmnt/brussel_pixiu_data/_data_brussel/112/vsc11236/PredSimResults/SUBJ04mtu3D/worker9.mot
version=1
nRows=4
nColumns=50
inDegrees=yes
endheader
                time	         pelvis_tilt	         pelvis_list	     pelvis_rotation	           pelvis_tx	           pelvis_ty	           pelvis_tz	       hip_flexion_r	     hip_adduction_r	      hip_rotation_r	        knee_angle_r	       ankle_angle_r	         mtp_angle_r	       hip_flexion_l	     hip_adduction_l	      hip_rotation_l	        knee_angle_l	       ankle_angle_l	         mtp_angle_l	    lumbar_extension	      lumbar_bending	     lumbar_rotation	 ercspn_r/activation	 intobl_r/activation	 extobl_r/activation	    abd_r/activation	    add_r/activation	hamstrings_r/activation	bifemsh_r/activation	glut_max_r/activation	iliopsoas_r/activation	rect_fem_r/activation	  vasti_r/activation	gastroc_r/activation	 soleus_r/activation	tib_ant_r/activation	 ercspn_l/activation	 intobl_l/activation	 extobl_l/activation	    abd_l/activation	    add_l/activation	hamstrings_l/activation	bifemsh_l/activation	glut_max_l/activation	iliopsoas_l/activation	rect_fem_l/activation	  vasti_l/activation	gastroc_l/activation	 soleus_l/activation	tib_ant_l/activation	
          0.00000000	         -2.98818975	          1.04602449	          8.27440803	          0.00000000	          0.88074788	         -0.01160021	         29.25978685	         -3.99596020	         -9.22760291	         -9.03679325	          5.63394118	          0.23322262	        -12.66360410	          0.06151067	         -8.42710268	         -7.74931355	         10.35881941	         24.53732366	        -13.96232053	         -4.18816057	         -7.25763659	          0.02302861	          0.22288219	          0.02018469	          0.01268535	          0.25508409	          0.07817497	          0.07831801	          0.02168967	          0.14280334	          0.02259780	          0.01111041	          0.01843102	          0.01827342	          0.29251181	          0.02090191	          0.00999999	          0.00999999	          0.05106614	          0.00999999	          0.02238959	          0.13840508	          0.01605138	          0.00999999	          0.00999999	          0.00999999	          0.34793703	          0.21709708	          0.00999999	
          0.01356443	         -3.06387558	          1.05411721	          8.05134280	          0.01627523	          0.87860368	         -0.01102876	         29.18680356	         -3.90789809	         -9.38052783	        -10.62196302	          5.32497298	          0.22349580	        -13.35787287	         -0.06718037	         -9.08175874	         -8.35632763	          9.92454930	         25.96132856	        -13.46392126	         -3.58561207	         -7.31954239	          0.01878240	          0.21646669	          0.01646287	          0.03095266	          0.20804952	          0.07356416	          0.06387707	          0.05399313	          0.11647205	          0.01843103	          0.00999999	          0.01503256	          0.01490402	          0.32622064	          0.03074196	          0.00999999	          0.00999999	          0.04165013	          0.00999999	          0.01826121	          0.11288478	          0.01309169	          0.00999999	          0.00999999	          0.00999999	          0.32236228	          0.20848054	          0.00999999	
          0.02712887	         -3.12442564	          1.00822582	          7.77369797	          0.03284521	          0.87675534	         -0.01037162	         29.04916958	         -3.78626207	         -9.56247809	        -12.05984137	          4.81539679	          0.21289050	        -13.93253299	         -0.26953983	         -9.77169244	         -9.23073522	          9.38208611	         27.42197522	        -12.94276103	         -2.89947958	         -7.35094749	          0.02790274	          0.17655273	          0.01342730	          0.05588447	          0.20810741	          0.07174455	          0.05209887	          0.06248625	          0.09499594	          0.01503256	          0.04989367	          0.01226073	          0.01215589	          0.35369871	          0.04702389	          0.00999999	          0.00999999	          0.03397033	          0.00999999	          0.01489405	          0.09207012	          0.01067773	          0.01503256	          0.00999999	          0.00999999	          0.29385594	          0.19458605	          0.00999999	
          0.04069330	         -3.17026156	          0.92405623	          7.44343656	          0.04955761	          0.87539570	         -0.00960279	         28.85339874	         -3.62821900	         -9.82474921	        -13.40996979	          4.31803165	          0.19113735	        -14.31495165	         -0.54278087	        -10.49766576	        -10.48054610	          8.69136152	         28.91267466	        -12.42147371	         -2.15473746	         -7.34942859	          0.02310466	          0.14399844	          0.01095146	          0.07772681	          0.20499996	          0.06928056	          0.04249244	          0.05096451	          0.07747979	          0.01226073	          0.10007893	          0.00999999	          0.00999999	          0.38227080	          0.05585303	          0.00999999	          0.00999999	          0.02770659	          0.00999999	          0.01214776	          0.07509345	          0.00999999	          0.01226073	          0.00999999	          0.00999999	          0.23967229	          0.17887486	          0.00999999	
